{
  "accessors": [
    {
      "bufferView": 2,
      "componentType": 5126,
      "count": 3282,
      "max": [
        0.12574800848960876,
        0.38921993970870972,
        0.12574803829193115
      ],
      "min": [
        -0.12574802339076996,
        -0.61077606678009033,
        -0.12574803829193115
      ],
      "type": "VEC3"
    },
    {
      "bufferView": 2,
      "byteOffset": 39384,
      "componentType": 5126,
      "count": 3282,
      "max": [
        1,
        1,
        1
      ],
      "min": [
        -1,
        -1,
        -1
      ],
      "type": "VEC3"
    },
    {
      "bufferView": 3,
      "componentType": 5126,
      "count": 3282,
      "max": [
        0.93070513010025024,
        0.99996447563171387,
        0.92617285251617432,
        1
      ],
      "min": [
        -0.99725884199142456,
        -1,
        -0.95694208145141602,
        1
      ],
      "type": "VEC4"
    },
    {
      "bufferView": 1,
      "componentType": 5126,
      "count": 3282,
      "max": [
        0.99648916721343994,
        0.9318084716796875
      ],
      "min": [
        0.0035109645687043667,
        0.0035109645687043667
      ],
      "type": "VEC2"
    },
    {
      "bufferView": 0,
      "componentType": 5125,
      "count": 15870,
      "max": [
        3281
      ],
      "min": [
        0
      ],
      "type": "SCALAR"
    },
    {
      "bufferView": 2,
      "byteOffset": 78768,
      "componentType": 5126,
      "count": 32,
      "max": [
        0.11034388095140457,
        -0.59880000352859497,
        0.11034386605024338
      ],
      "min": [
        -0.11034388095140457,
        -0.59880000352859497,
        -0.11034390330314636
      ],
      "type": "VEC3"
    },
    {
      "bufferView": 2,
      "byteOffset": 79152,
      "componentType": 5126,
      "count": 32,
      "max": [
        0,
        -1,
        4.9009230451702024e-08
      ],
      "min": [
        0,
        -1,
        4.9009230451702024e-08
      ],
      "type": "VEC3"
    },
    {
      "bufferView": 1,
      "byteOffset": 26256,
      "componentType": 5126,
      "count": 32,
      "max": [
        0.99989998340606689,
        0.99989998340606689
      ],
      "min": [
        9.9980010418221354e-05,
        9.9980010418221354e-05
      ],
      "type": "VEC2"
    },
    {
      "bufferView": 0,
      "byteOffset": 63480,
      "componentType": 5125,
      "count": 90,
      "max": [
        31
      ],
      "min": [
        0
      ],
      "type": "SCALAR"
    }
  ],
  "asset": {
    "extras": {
      "author": "Brandon Baldwin (https://sketchfab.com/Fecalmancer)",
      "license": "CC-BY-4.0 (http://creativecommons.org/licenses/by/4.0/)",
      "source": "https://sketchfab.com/3d-models/flashlight-fc5a0e9799de4eda932f2714f63f8d0c",
      "title": "Flashlight"
    },
    "generator": "Sketchfab-7.51.0",
    "version": "2.0"
  },
  "bufferViews": [
    {
      "buffer": 0,
      "byteLength": 63840,
      "byteOffset": 0,
      "name": "floatBufferViews",
      "target": 34963
    },
    {
      "buffer": 0,
      "byteLength": 26512,
      "byteOffset": 63840,
      "byteStride": 8,
      "name": "floatBufferViews",
      "target": 34962
    },
    {
      "buffer": 0,
      "byteLength": 79536,
      "byteOffset": 90352,
      "byteStride": 12,
      "name": "floatBufferViews",
      "target": 34962
    },
    {
      "buffer": 0,
      "byteLength": 52512,
      "byteOffset": 169888,
      "byteStride": 16,
      "name": "floatBufferViews",
      "target": 34962
    }
  ],
  "buffers": [
    {
      "byteLength": 222400,
      "uri": "scene.bin"
    }
  ],
  "images": [
    {
      "uri": "textures/Flashlight_baseColor.png"
    },
    {
      "uri": "textures/Flashlight_metallicRoughness.png"
    },
    {
      "uri": "textures/Flashlight_normal.png"
    },
    {
      "uri": "textures/Flashlight_Glass_baseColor.png"
    },
    {
      "uri": "textures/Flashlight_Glass_metallicRoughness.png"
    }
  ],
  "materials": [
    {
      "doubleSided": true,
      "emissiveFactor": [
        0,
        0,
        0
      ],
      "name": "Flashlight",
      "normalTexture": {
        "index": 2,
        "scale": 1,
        "texCoord": 0
      },
      "occlusionTexture": {
        "index": 1,
        "strength": 1,
        "texCoord": 0
      },
      "pbrMetallicRoughness": {
        "baseColorFactor": [
          1,
          1,
          1,
          1
        ],
        "baseColorTexture": {
          "index": 0,
          "texCoord": 0
        },
        "metallicFactor": 1,
        "metallicRoughnessTexture": {
          "index": 1,
          "texCoord": 0
        },
        "roughnessFactor": 1
      }
    },
    {
      "alphaMode": "BLEND",
      "doubleSided": true,
      "emissiveFactor": [
        0,
        0,
        0
      ],
      "name": "Flashlight_Glass",
      "pbrMetallicRoughness": {
        "baseColorFactor": [
          1,
          1,
          1,
          1
        ],
        "baseColorTexture": {
          "index": 3,
          "texCoord": 0
        },
        "metallicFactor": 1,
        "metallicRoughnessTexture": {
          "index": 4,
          "texCoord": 0
        },
        "roughnessFactor": 1
      }
    }
  ],
  "meshes": [
    {
      "name": "Flashlight_Flashlight_0",
      "primitives": [
        {
          "attributes": {
            "NORMAL": 1,
            "POSITION": 0,
            "TANGENT": 2,
            "TEXCOORD_0": 3
          },
          "indices": 4,
          "material": 0,
          "mode": 4
        }
      ]
    },
    {
      "name": "Flashlight_Flashlight Glass_0",
      "primitives": [
        {
          "attributes": {
            "NORMAL": 6,
            "POSITION": 5,
            "TEXCOORD_0": 7
          },
          "indices": 8,
          "material": 1,
          "mode": 4
        }
      ]
    }
  ],
  "nodes": [
    {
      "children": [
        1
      ],
      "name": "RootNode (gltf orientation matrix)",
      "rotation": [
        -0.70710678118654746,
        -0,
        -0,
        0.70710678118654757
      ]
    },
    {
      "children": [
        2
      ],
      "name": "RootNode (model correction matrix)"
    },
    {
      "children": [
        3
      ],
      "matrix": [
        1,
        0,
        0,
        0,
        0,
        0,
        1,
        0,
        0,
        -1,
        0,
        0,
        0,
        0,
        0,
        1
      ],
      "name": "db2743df6b89466596d48161ee492174.fbx"
    },
    {
      "children": [
        4
      ],
      "name": "RootNode"
    },
    {
      "children": [
        5,
        6
      ],
      "matrix": [
        100,
        0,
        0,
        0,
        0,
        -1.6292067939183141e-05,
        -99.999999999998678,
        0,
        0,
        99.999999999998678,
        -1.6292067939183141e-05,
        0,
        0,
        0,
        0,
        1
      ],
      "name": "Flashlight"
    },
    {
      "mesh": 0,
      "name": "Flashlight_Flashlight_0"
    },
    {
      "mesh": 1,
      "name": "Flashlight_Flashlight Glass_0"
    }
  ],
  "samplers": [
    {
      "magFilter": 9729,
      "minFilter": 9987,
      "wrapS": 10497,
      "wrapT": 10497
    }
  ],
  "scene": 0,
  "scenes": [
    {
      "name": "OSG_Scene",
      "nodes": [
        0
      ]
    }
  ],
  "textures": [
    {
      "sampler": 0,
      "source": 0
    },
    {
      "sampler": 0,
      "source": 1
    },
    {
      "sampler": 0,
      "source": 2
    },
    {
      "sampler": 0,
      "source": 3
    },
    {
      "sampler": 0,
      "source": 4
    }
  ]
}

